<svg width="216" height="216" viewBox="0 0 216 216" fill="none" xmlns="http://www.w3.org/2000/svg">
<circle cx="108" cy="108" r="95" fill="#D5D0C1"/>
<path d="M140.029 110.536C141.672 111.484 141.672 113.855 140.029 114.803L88.2899 144.675C86.6473 145.623 84.5942 144.438 84.5942 142.541V122.626C84.5942 121.746 85.0638 120.933 85.8261 120.493L95.6814 114.803C97.3238 113.855 97.324 111.484 95.6817 110.536L85.8259 104.844C85.0638 104.404 84.5942 103.591 84.5942 102.711V82.7979C84.5942 80.9013 86.6473 79.7157 88.2899 80.664L140.029 110.536Z" fill="#69785A"/>
<path d="M140.029 104.945C141.672 105.893 141.672 108.264 140.029 109.212L88.2899 139.084C86.6473 140.032 84.5942 138.847 84.5942 136.95V117.035C84.5942 116.155 85.0638 115.342 85.8261 114.901L95.6814 109.212C97.3238 108.264 97.324 105.893 95.6817 104.945L85.8259 99.2531C85.0638 98.8131 84.5942 97.9998 84.5942 97.1195V77.2068C84.5942 75.3102 86.6473 74.1249 88.2899 75.0732L140.029 104.945Z" fill="#2A3E16"/>
<path d="M115.322 35.6821C121.474 36.2975 127.398 37.6836 133.001 39.7363C133.224 39.8178 133.448 39.898 133.67 39.9817C133.907 40.0711 134.142 40.1642 134.377 40.256C134.612 40.3474 134.848 40.4387 135.082 40.5327C135.309 40.6236 135.533 40.7186 135.758 40.8118C136.035 40.926 136.313 41.0381 136.588 41.1559C136.695 41.2017 136.802 41.2491 136.908 41.2954C137.281 41.4569 137.654 41.6205 138.025 41.7886C138.076 41.8121 138.127 41.8373 138.179 41.8608C143.741 44.398 149.051 47.6709 153.957 51.6847L168.105 47.8951L164.313 62.0401C169.275 68.1049 173.106 74.7862 175.811 81.8008C175.883 81.9865 175.955 82.1726 176.026 82.3591C176.089 82.5269 176.149 82.6959 176.211 82.8644C178.29 88.5062 179.695 94.4754 180.316 100.676L193 108L180.316 115.322C179.648 121.997 178.072 128.404 175.722 134.423C175.637 134.643 175.55 134.863 175.462 135.082C175.381 135.284 175.298 135.485 175.215 135.686C172.552 142.156 168.922 148.322 164.313 153.955L168.105 168.105L153.957 164.313C149.056 168.323 143.752 171.591 138.196 174.127C138.138 174.154 138.08 174.18 138.022 174.207C137.713 174.347 137.402 174.482 137.091 174.618C136.908 174.698 136.725 174.78 136.54 174.859C136.312 174.956 136.083 175.05 135.855 175.145C135.596 175.252 135.337 175.36 135.077 175.465C134.917 175.529 134.755 175.592 134.594 175.655C134.261 175.786 133.928 175.916 133.593 176.042C133.486 176.083 133.378 176.12 133.27 176.16C127.588 178.268 121.572 179.69 115.322 180.316L108 193L100.676 180.316C94.3995 179.687 88.3603 178.256 82.6574 176.134C82.5751 176.103 82.4916 176.076 82.4096 176.045C81.9856 175.885 81.564 175.721 81.1439 175.554C81.0831 175.53 81.022 175.506 80.9611 175.482C80.6187 175.344 80.2784 175.203 79.9387 175.061C79.779 174.994 79.6189 174.929 79.4597 174.861C79.2996 174.792 79.1407 174.721 78.981 174.652C72.9963 172.048 67.2884 168.605 62.0426 164.313L47.8951 168.105L51.6871 153.955C51.6465 153.906 51.6071 153.855 51.5667 153.806C51.4679 153.684 51.3713 153.56 51.2732 153.438C47.7695 149.074 44.8405 144.403 42.4912 139.521C42.4792 139.496 42.4671 139.472 42.4551 139.447C42.2948 139.113 42.1384 138.777 41.9835 138.441C41.9101 138.282 41.8345 138.124 41.7622 137.965C41.6018 137.61 41.4474 137.253 41.293 136.896C41.2407 136.776 41.1859 136.656 41.1342 136.535C41.0586 136.358 40.987 136.179 40.9129 136.001C38.2081 129.529 36.4086 122.584 35.6821 115.322L23 108L35.6821 100.676C36.3548 93.9541 37.9455 87.5027 40.3234 81.4472C40.3987 81.2548 40.4725 81.0617 40.5495 80.8697C40.6144 80.7086 40.6832 80.5489 40.7492 80.3885C43.4143 73.8894 47.0592 67.6967 51.6871 62.0401L47.8951 47.8951L62.0426 51.6847C67.2887 47.3928 72.9958 43.9472 78.981 41.3435C79.1397 41.2744 79.2981 41.2047 79.4572 41.1366C79.6854 41.0394 79.9143 40.9451 80.1432 40.8503C80.4016 40.7429 80.6601 40.6348 80.9202 40.5303C81.104 40.4566 81.2893 40.3859 81.4736 40.3137C81.7712 40.197 82.0691 40.0802 82.3687 39.9673C82.5286 39.9072 82.6897 39.8506 82.8499 39.7916C88.4961 37.709 94.4702 36.3031 100.676 35.6821L108 23L115.322 35.6821ZM108 50.1014L101.083 38.1219C96.6817 38.5549 92.3134 39.4007 88.042 40.6626C88.0161 40.6702 87.9908 40.679 87.9651 40.6867C86.9464 40.9889 85.933 41.3141 84.9263 41.6635C64.7079 48.6951 48.6951 64.7079 41.6635 84.9263C39.8407 90.1791 38.6606 95.6053 38.1219 101.083L50.1014 108L38.1219 114.915C38.6605 120.392 39.8409 125.818 41.6635 131.071C48.6946 151.29 64.7077 167.302 84.9263 174.334C85.933 174.683 86.9464 175.009 87.9651 175.311C87.9908 175.319 88.0161 175.327 88.042 175.335C91.2708 176.289 94.5545 177.006 97.8658 177.486C97.9138 177.493 97.9621 177.498 98.0102 177.505C99.0329 177.651 100.058 177.772 101.085 177.873L108 165.899L114.913 177.873C115.939 177.772 116.965 177.651 117.987 177.505C118.035 177.498 118.084 177.493 118.132 177.486C121.443 177.006 124.727 176.289 127.956 175.335C127.981 175.327 128.007 175.319 128.033 175.311C129.051 175.009 130.065 174.683 131.071 174.334C151.291 167.302 167.302 151.291 174.334 131.071C176.157 125.818 177.335 120.391 177.873 114.913L165.899 108L177.873 101.085C177.335 95.607 176.157 90.1798 174.334 84.9263C167.302 64.7077 151.29 48.6946 131.071 41.6635C130.065 41.3142 129.051 40.9889 128.033 40.6867C128.007 40.679 127.981 40.6702 127.956 40.6626C123.684 39.4009 119.316 38.5548 114.915 38.1219L108 50.1014Z" fill="#69785A"/>
</svg>
