<svg width="170" height="170" viewBox="0 0 170 170" fill="none" xmlns="http://www.w3.org/2000/svg">
<path d="M62.0942 59.798C62.0942 58.2864 63.7304 57.3414 65.0396 58.0969L116.779 87.9689C118.088 88.7248 118.088 90.6144 116.779 91.3703L65.0396 121.242C63.7303 121.998 62.0942 121.053 62.0942 119.541V99.6262C62.0942 98.9247 62.4684 98.2767 63.0757 97.926L72.9312 92.2355C74.9066 91.0949 74.9075 88.2437 72.9321 87.1027L63.0757 81.4113C62.4684 81.0606 62.0942 80.4118 62.0942 79.7101V59.798Z" fill="#FCC977" stroke="black"/>
<path d="M62.0942 54.2072C62.0942 52.6957 63.7303 51.7505 65.0396 52.506L116.779 82.3781C118.088 83.134 118.088 85.0236 116.779 85.7795L65.0396 115.651C63.7303 116.406 62.0943 115.462 62.0942 113.95V94.0353C62.0942 93.3337 62.4682 92.6849 63.0757 92.3342L72.9312 86.6447C74.9066 85.5041 74.9075 82.6529 72.9321 81.5119L63.0757 75.8205C62.4683 75.4698 62.0942 74.821 62.0942 74.1193V54.2072Z" fill="#BE4700" stroke="black"/>
<mask id="path-3-inside-1_10_214" fill="white">
<path d="M92.3216 12.6821C98.4736 13.2975 104.398 14.6836 110.001 16.7363C110.224 16.8178 110.448 16.898 110.67 16.9817C110.907 17.0711 111.142 17.1642 111.377 17.256C111.612 17.3474 111.848 17.4387 112.082 17.5327C112.309 17.6236 112.533 17.7186 112.758 17.8118C113.035 17.926 113.313 18.0381 113.588 18.1559C113.695 18.2017 113.802 18.2491 113.908 18.2954C114.281 18.4569 114.654 18.6205 115.025 18.7886C115.076 18.8121 115.127 18.8373 115.179 18.8608C120.741 21.398 126.051 24.6709 130.957 28.6847L145.105 24.8951L141.313 39.0401C146.275 45.1049 150.106 51.7862 152.811 58.8008C152.883 58.9865 152.955 59.1726 153.026 59.3591C153.089 59.5269 153.149 59.6959 153.211 59.8644C155.29 65.5062 156.695 71.4754 157.316 77.676L170 85L157.316 92.3216C156.648 98.9967 155.072 105.404 152.722 111.423C152.637 111.643 152.55 111.863 152.462 112.082C152.381 112.284 152.298 112.485 152.215 112.686C149.552 119.156 145.922 125.322 141.313 130.955L145.105 145.105L130.957 141.313C126.056 145.323 120.752 148.591 115.196 151.127C115.138 151.154 115.08 151.18 115.022 151.207C114.713 151.347 114.402 151.482 114.091 151.618C113.908 151.698 113.725 151.78 113.54 151.859C113.312 151.956 113.083 152.05 112.855 152.145C112.596 152.252 112.337 152.36 112.077 152.465C111.917 152.529 111.755 152.592 111.594 152.655C111.261 152.786 110.928 152.916 110.593 153.042C110.486 153.083 110.378 153.12 110.27 153.16C104.588 155.268 98.5724 156.69 92.3216 157.316L85 170L77.676 157.316C71.3995 156.687 65.3603 155.256 59.6574 153.134C59.5751 153.103 59.4916 153.076 59.4096 153.045C58.9856 152.885 58.564 152.721 58.1439 152.554C58.0831 152.53 58.022 152.506 57.9611 152.482C57.6187 152.344 57.2784 152.203 56.9387 152.061C56.779 151.994 56.6189 151.929 56.4597 151.861C56.2996 151.792 56.1407 151.721 55.981 151.652C49.9963 149.048 44.2884 145.605 39.0426 141.313L24.8951 145.105L28.6871 130.955C28.6465 130.906 28.6071 130.855 28.5667 130.806C28.4679 130.684 28.3713 130.56 28.2732 130.438C24.7695 126.074 21.8405 121.403 19.4912 116.521C19.4792 116.496 19.4671 116.472 19.4551 116.447C19.2948 116.113 19.1384 115.777 18.9835 115.441C18.9101 115.282 18.8345 115.124 18.7622 114.965C18.6018 114.61 18.4474 114.253 18.293 113.896C18.2407 113.776 18.1859 113.656 18.1342 113.535C18.0586 113.358 17.987 113.179 17.9129 113.001C15.2081 106.529 13.4086 99.5835 12.6821 92.3216L0 85L12.6821 77.676C13.3548 70.9541 14.9455 64.5027 17.3234 58.4472C17.3987 58.2548 17.4725 58.0617 17.5495 57.8697C17.6144 57.7086 17.6832 57.5489 17.7492 57.3885C20.4143 50.8894 24.0592 44.6967 28.6871 39.0401L24.8951 24.8951L39.0426 28.6847C44.2887 24.3928 49.9958 20.9472 55.981 18.3435C56.1397 18.2744 56.2981 18.2047 56.4572 18.1366C56.6854 18.0394 56.9143 17.9451 57.1432 17.8503C57.4016 17.7429 57.6601 17.6348 57.9202 17.5303C58.104 17.4566 58.2893 17.3859 58.4736 17.3137C58.7712 17.197 59.0691 17.0802 59.3687 16.9673C59.5286 16.9072 59.6897 16.8506 59.8499 16.7916C65.4961 14.709 71.4702 13.3031 77.676 12.6821L85 0L92.3216 12.6821ZM85 27.1014L78.0827 15.1219C73.6817 15.5549 69.3134 16.4007 65.042 17.6626C65.0161 17.6702 64.9908 17.679 64.9651 17.6867C63.9464 17.9889 62.933 18.3141 61.9263 18.6635C41.7079 25.6951 25.6951 41.7079 18.6635 61.9263C16.8407 67.1791 15.6606 72.6053 15.1219 78.0827L27.1014 85L15.1219 91.9148C15.6605 97.3923 16.8409 102.818 18.6635 108.071C25.6946 128.29 41.7077 144.302 61.9263 151.334C62.933 151.683 63.9464 152.009 64.9651 152.311C64.9908 152.319 65.0161 152.327 65.042 152.335C68.2708 153.289 71.5545 154.006 74.8658 154.486C74.9138 154.493 74.9621 154.498 75.0102 154.505C76.0329 154.651 77.058 154.772 78.0852 154.873L85 142.899L91.9126 154.873C92.9395 154.772 93.9649 154.651 94.9874 154.505C95.0354 154.498 95.0837 154.493 95.1318 154.486C98.4433 154.006 101.727 153.289 104.956 152.335C104.981 152.327 105.007 152.319 105.033 152.311C106.051 152.009 107.065 151.683 108.071 151.334C128.291 144.302 144.302 128.291 151.334 108.071C153.157 102.818 154.335 97.3908 154.873 91.9126L142.899 85L154.873 78.0852C154.335 72.607 153.157 67.1798 151.334 61.9263C144.302 41.7077 128.29 25.6946 108.071 18.6635C107.065 18.3142 106.051 17.9889 105.033 17.6867C105.007 17.679 104.981 17.6702 104.956 17.6626C100.684 16.4009 96.3158 15.5548 91.9148 15.1219L85 27.1014Z"/>
</mask>
<path d="M92.3216 12.6821C98.4736 13.2975 104.398 14.6836 110.001 16.7363C110.224 16.8178 110.448 16.898 110.67 16.9817C110.907 17.0711 111.142 17.1642 111.377 17.256C111.612 17.3474 111.848 17.4387 112.082 17.5327C112.309 17.6236 112.533 17.7186 112.758 17.8118C113.035 17.926 113.313 18.0381 113.588 18.1559C113.695 18.2017 113.802 18.2491 113.908 18.2954C114.281 18.4569 114.654 18.6205 115.025 18.7886C115.076 18.8121 115.127 18.8373 115.179 18.8608C120.741 21.398 126.051 24.6709 130.957 28.6847L145.105 24.8951L141.313 39.0401C146.275 45.1049 150.106 51.7862 152.811 58.8008C152.883 58.9865 152.955 59.1726 153.026 59.3591C153.089 59.5269 153.149 59.6959 153.211 59.8644C155.29 65.5062 156.695 71.4754 157.316 77.676L170 85L157.316 92.3216C156.648 98.9967 155.072 105.404 152.722 111.423C152.637 111.643 152.55 111.863 152.462 112.082C152.381 112.284 152.298 112.485 152.215 112.686C149.552 119.156 145.922 125.322 141.313 130.955L145.105 145.105L130.957 141.313C126.056 145.323 120.752 148.591 115.196 151.127C115.138 151.154 115.08 151.18 115.022 151.207C114.713 151.347 114.402 151.482 114.091 151.618C113.908 151.698 113.725 151.78 113.54 151.859C113.312 151.956 113.083 152.05 112.855 152.145C112.596 152.252 112.337 152.36 112.077 152.465C111.917 152.529 111.755 152.592 111.594 152.655C111.261 152.786 110.928 152.916 110.593 153.042C110.486 153.083 110.378 153.12 110.27 153.16C104.588 155.268 98.5724 156.69 92.3216 157.316L85 170L77.676 157.316C71.3995 156.687 65.3603 155.256 59.6574 153.134C59.5751 153.103 59.4916 153.076 59.4096 153.045C58.9856 152.885 58.564 152.721 58.1439 152.554C58.0831 152.53 58.022 152.506 57.9611 152.482C57.6187 152.344 57.2784 152.203 56.9387 152.061C56.779 151.994 56.6189 151.929 56.4597 151.861C56.2996 151.792 56.1407 151.721 55.981 151.652C49.9963 149.048 44.2884 145.605 39.0426 141.313L24.8951 145.105L28.6871 130.955C28.6465 130.906 28.6071 130.855 28.5667 130.806C28.4679 130.684 28.3713 130.56 28.2732 130.438C24.7695 126.074 21.8405 121.403 19.4912 116.521C19.4792 116.496 19.4671 116.472 19.4551 116.447C19.2948 116.113 19.1384 115.777 18.9835 115.441C18.9101 115.282 18.8345 115.124 18.7622 114.965C18.6018 114.61 18.4474 114.253 18.293 113.896C18.2407 113.776 18.1859 113.656 18.1342 113.535C18.0586 113.358 17.987 113.179 17.9129 113.001C15.2081 106.529 13.4086 99.5835 12.6821 92.3216L0 85L12.6821 77.676C13.3548 70.9541 14.9455 64.5027 17.3234 58.4472C17.3987 58.2548 17.4725 58.0617 17.5495 57.8697C17.6144 57.7086 17.6832 57.5489 17.7492 57.3885C20.4143 50.8894 24.0592 44.6967 28.6871 39.0401L24.8951 24.8951L39.0426 28.6847C44.2887 24.3928 49.9958 20.9472 55.981 18.3435C56.1397 18.2744 56.2981 18.2047 56.4572 18.1366C56.6854 18.0394 56.9143 17.9451 57.1432 17.8503C57.4016 17.7429 57.6601 17.6348 57.9202 17.5303C58.104 17.4566 58.2893 17.3859 58.4736 17.3137C58.7712 17.197 59.0691 17.0802 59.3687 16.9673C59.5286 16.9072 59.6897 16.8506 59.8499 16.7916C65.4961 14.709 71.4702 13.3031 77.676 12.6821L85 0L92.3216 12.6821ZM85 27.1014L78.0827 15.1219C73.6817 15.5549 69.3134 16.4007 65.042 17.6626C65.0161 17.6702 64.9908 17.679 64.9651 17.6867C63.9464 17.9889 62.933 18.3141 61.9263 18.6635C41.7079 25.6951 25.6951 41.7079 18.6635 61.9263C16.8407 67.1791 15.6606 72.6053 15.1219 78.0827L27.1014 85L15.1219 91.9148C15.6605 97.3923 16.8409 102.818 18.6635 108.071C25.6946 128.29 41.7077 144.302 61.9263 151.334C62.933 151.683 63.9464 152.009 64.9651 152.311C64.9908 152.319 65.0161 152.327 65.042 152.335C68.2708 153.289 71.5545 154.006 74.8658 154.486C74.9138 154.493 74.9621 154.498 75.0102 154.505C76.0329 154.651 77.058 154.772 78.0852 154.873L85 142.899L91.9126 154.873C92.9395 154.772 93.9649 154.651 94.9874 154.505C95.0354 154.498 95.0837 154.493 95.1318 154.486C98.4433 154.006 101.727 153.289 104.956 152.335C104.981 152.327 105.007 152.319 105.033 152.311C106.051 152.009 107.065 151.683 108.071 151.334C128.291 144.302 144.302 128.291 151.334 108.071C153.157 102.818 154.335 97.3908 154.873 91.9126L142.899 85L154.873 78.0852C154.335 72.607 153.157 67.1798 151.334 61.9263C144.302 41.7077 128.29 25.6946 108.071 18.6635C107.065 18.3142 106.051 17.9889 105.033 17.6867C105.007 17.679 104.981 17.6702 104.956 17.6626C100.684 16.4009 96.3158 15.5548 91.9148 15.1219L85 27.1014Z" fill="#DF803D" stroke="black" stroke-width="2" mask="url(#path-3-inside-1_10_214)"/>
</svg>
